<svg width="936" height="101" viewBox="0 0 936 101" fill="none" xmlns="http://www.w3.org/2000/svg">
<path d="M0.74094 53.2095C0.485505 52.0574 0.357788 50.9772 0.357788 49.969C0.357788 48.8889 0.485505 47.8447 0.74094 46.8365C8.5317 38.0512 13.832 32.1823 16.6417 29.2298C20.6648 24.9091 25.0711 21.0205 29.8605 17.564L34.5541 24.8011C22.5487 38.9873 15.3326 47.3046 12.906 49.753L14.5344 51.3733L35.6078 74.5969L29.8605 81.942C25.1988 78.5575 21.942 75.8931 20.0901 73.9488C8.14854 61.4188 1.69882 54.5057 0.74094 53.2095Z" fill="#252436"/>
<path d="M65.2452 2.54962C66.9055 2.26158 68.5658 2.11756 70.2261 2.11756C71.8865 2.11756 74.345 2.44161 77.6018 3.08971L52.1222 77.9454C50.7812 78.3055 48.9293 78.4855 46.5665 78.4855C44.2037 78.4855 42.3838 78.3775 41.1066 78.1614L65.2452 2.54962Z" fill="#252436"/>
<path d="M87.9978 78.0534C85.8151 78.0534 84.7238 76.7349 84.7238 74.0977V6.37621C84.7238 3.73908 85.8151 2.42051 87.9978 2.42051H104.321C118.664 2.42051 128.362 5.69055 133.413 12.2306C138.495 18.7707 141.037 28.071 141.037 40.1315C141.037 52.192 138.495 61.5274 133.413 68.1378C128.362 74.7482 118.664 78.0534 104.321 78.0534H87.9978ZM98.3811 64.9733H103.432C113.099 64.9733 119.35 62.9515 122.188 58.9079C125.025 54.8291 126.444 48.5703 126.444 40.1315C126.444 31.6927 125.025 25.469 122.188 21.4606C119.35 17.417 113.099 15.3952 103.432 15.3952H98.3811V64.9733Z" fill="#252436"/>
<path d="M148.801 50.3636C148.801 41.4676 150.765 34.4529 154.694 29.3192C158.654 24.1856 164.235 21.6188 171.438 21.6188C179.795 21.6188 186 24.045 190.053 28.8973C194.107 33.7496 196.133 41.5555 196.133 52.315C196.133 54.4247 195.26 55.4796 193.514 55.4796H162.645C163.144 61.3164 164.422 64.9908 166.48 66.5028C168.538 68.0147 170.924 68.7707 173.636 68.7707C176.224 68.7707 178.204 68.3839 179.576 67.6104C180.948 66.8368 182.102 65.782 183.037 64.4458C184.098 62.8987 185.407 62.6526 186.966 63.7074L191.643 66.9247C193.483 68.1906 193.748 69.7025 192.439 71.4606C190.536 74.0274 188.307 75.9437 185.75 77.2095C183.193 78.4754 179.155 79.1083 173.636 79.1083C164.687 79.1083 158.311 76.5415 154.507 71.4079C150.703 66.2742 148.801 59.2595 148.801 50.3636ZM162.692 44.9311H183.037C183.037 41.1336 182.196 38.0394 180.512 35.6484C178.828 33.2222 176.146 32.0091 172.467 32.0091C169.536 32.0091 167.213 33.1695 165.498 35.4901C163.783 37.7756 162.848 40.9226 162.692 44.9311Z" fill="#252436"/>
<path d="M203.102 26.7876C202.323 24.045 202.837 22.6737 204.646 22.6737H213.018C214.483 22.6737 215.419 23.5703 215.824 25.3636L223.074 56.2707C223.479 57.9936 223.807 59.699 224.056 61.3868C224.337 63.0745 224.508 64.4458 224.571 65.5007H224.851C224.914 64.4458 225.069 63.0745 225.319 61.3868C225.599 59.699 225.942 57.9936 226.348 56.2707L233.597 25.3636C234.003 23.5703 234.938 22.6737 236.404 22.6737H244.776C246.584 22.6737 247.099 24.045 246.319 26.7876L232.756 74.5197C232.101 76.8755 230.963 78.0534 229.341 78.0534H220.08C218.459 78.0534 217.321 76.8755 216.666 74.5197L203.102 26.7876Z" fill="#252436"/>
<path d="M252.493 78.0534C250.248 78.0534 249.515 76.8931 250.295 74.5724L273.213 6.69266C274.179 3.84456 275.645 2.42051 277.609 2.42051H284.157C286.122 2.42051 287.587 3.84456 288.554 6.69266L311.472 74.5724C312.251 76.8931 311.519 78.0534 309.274 78.0534H301.837C299.779 78.0534 298.345 76.8403 297.534 74.4142L292.763 60.2264H269.003L264.233 74.4142C263.422 76.8403 261.988 78.0534 259.93 78.0534H252.493ZM273.353 47.1463H288.414L282.661 30.3741C281.975 28.405 281.554 26.981 281.398 26.1019C281.273 25.1877 281.133 23.8516 280.977 22.0935H280.79C280.634 23.8516 280.478 25.1877 280.322 26.1019C280.197 26.981 279.792 28.405 279.106 30.3741L273.353 47.1463Z" fill="#252436"/>
<path d="M321.481 78.0534C319.61 78.0534 318.675 76.9986 318.675 74.8889V25.8382C318.675 23.7285 319.61 22.6737 321.481 22.6737H328.871C330.742 22.6737 331.677 23.7285 331.677 25.8382V30.1631H331.864C332.675 27.9128 334.031 25.9261 335.933 24.2032C337.835 22.4803 340.08 21.6188 342.668 21.6188C344.446 21.6188 345.911 21.865 347.065 22.3572C348.156 22.8143 348.577 23.6582 348.328 24.8889L347.018 31.1652C346.738 32.5717 345.896 32.9936 344.493 32.4311C343.682 32.1146 342.902 31.9564 342.154 31.9564C339.161 31.9564 336.682 33.9782 334.717 38.0218C332.753 42.0654 331.771 47.955 331.771 55.6906V74.8889C331.771 76.9986 330.835 78.0534 328.964 78.0534H321.481Z" fill="#252436"/>
<path d="M353.8 33.2222C351.96 33.2222 351.041 32.3432 351.041 30.5851V25.3108C351.041 23.5527 351.96 22.6737 353.8 22.6737H356.981V20.8277C356.981 19.2454 357.308 17.8038 357.963 16.5028L361.564 9.38254C362.25 8.04639 363.061 7.37832 363.996 7.37832H367.27C369.141 7.37832 370.077 8.43317 370.077 10.5429V22.6737H377.654C379.493 22.6737 380.413 23.5527 380.413 25.3108V30.5851C380.413 32.3432 379.493 33.2222 377.654 33.2222H370.077V59.3825C370.077 62.969 370.295 65.5534 370.731 67.1357C371.199 68.6828 372.384 69.4564 374.286 69.4564C375.253 69.4564 376.344 69.2806 377.56 68.929C378.776 68.5422 379.727 68.173 380.413 67.8214C381.504 67.2588 382.222 67.6631 382.565 69.0344L383.968 75.0471C384.248 76.2426 383.843 77.1216 382.752 77.6842C381.723 78.2117 380.304 78.6863 378.495 79.1083C376.718 79.5654 374.925 79.7939 373.117 79.7939C368.658 79.7939 364.854 78.7567 361.704 76.6821C358.555 74.6076 356.981 70.3354 356.981 63.8657V33.2222H353.8Z" fill="#252436"/>
<path d="M395.567 78.0534C393.696 78.0534 392.761 76.9986 392.761 74.8889V25.8382C392.761 23.7285 393.696 22.6737 395.567 22.6737H403.05C404.921 22.6737 405.857 23.7285 405.857 25.8382V74.8889C405.857 76.9986 404.921 78.0534 403.05 78.0534H395.567ZM395.567 14.5513C393.696 14.5513 392.761 13.4965 392.761 11.3868V4.6357C392.761 2.526 393.696 1.47115 395.567 1.47115H403.05C404.921 1.47115 405.857 2.526 405.857 4.6357V11.3868C405.857 13.4965 404.921 14.5513 403.05 14.5513H395.567Z" fill="#252436"/>
<path d="M417.596 74.3614C416.069 73.1308 415.648 71.8122 416.334 70.4057L418.719 65.5007C419.561 63.7426 420.87 63.5316 422.648 64.8678C424.425 66.2039 426.514 67.1884 428.915 67.8214C431.347 68.4543 433.561 68.7707 435.557 68.7707C436.96 68.7707 438.269 68.6125 439.485 68.296C440.702 67.9796 441.73 67.3643 442.572 66.45C443.414 65.5358 443.835 64.1997 443.835 62.4416C443.835 61.3868 443.586 60.4901 443.087 59.7517C442.588 59.0133 441.949 58.4508 441.169 58.064C440.39 57.6772 439.563 57.3607 438.69 57.1146C437.537 56.7982 435.868 56.2707 433.686 55.5323C431.534 54.7939 429.461 53.9325 427.465 52.9479C425.813 52.1392 424.191 51.014 422.601 49.5724C421.042 48.0956 419.888 46.4606 419.14 44.6673C418.423 42.8741 418.064 40.6589 418.064 38.0218C418.064 34.4704 418.968 31.3586 420.777 28.6863C422.617 26.014 424.986 24.1681 427.886 23.1484C430.786 22.1287 434.403 21.6188 438.737 21.6188C441.668 21.6188 444.521 22.0935 447.296 23.0429C450.071 23.9922 452.051 24.8889 453.236 25.7327C455.107 27.0689 455.575 28.4929 454.639 30.0049L451.786 34.699C450.913 36.1055 449.51 36.2109 447.577 35.0154C446.111 34.1012 444.661 33.3628 443.227 32.8003C441.824 32.2377 440.249 31.9564 438.503 31.9564C437.318 31.9564 436.18 32.097 435.089 32.3783C433.998 32.6596 433.062 33.187 432.283 33.9606C431.534 34.7342 431.16 35.7538 431.16 37.0197C431.16 38.3558 431.503 39.4107 432.189 40.1842C432.906 40.9226 433.717 41.4676 434.621 41.8192C435.557 42.1709 436.445 42.5049 437.287 42.8214C439.033 43.4543 440.795 44.0696 442.572 44.6673C444.35 45.2299 446.158 45.9156 447.998 46.7243C449.588 47.4275 451.132 48.4297 452.628 49.7306C454.125 51.0316 455.216 52.6842 455.902 54.6884C456.588 56.6927 456.931 58.9782 456.931 61.545C456.931 64.9557 456.027 68.1202 454.218 71.0387C452.41 73.9571 450.025 76.0316 447.062 77.2623C444.1 78.4929 440.655 79.1083 436.726 79.1083C432.329 79.1083 428.588 78.7567 425.501 78.0534C422.414 77.3502 419.779 76.1195 417.596 74.3614Z" fill="#252436"/>
<path d="M463.994 33.2222C462.154 33.2222 461.234 32.3432 461.234 30.5851V25.3108C461.234 23.5527 462.154 22.6737 463.994 22.6737H467.174V20.8277C467.174 19.2454 467.502 17.8038 468.156 16.5028L471.758 9.38254C472.444 8.04639 473.254 7.37832 474.19 7.37832H477.464C479.335 7.37832 480.27 8.43317 480.27 10.5429V22.6737H487.847C489.687 22.6737 490.607 23.5527 490.607 25.3108V30.5851C490.607 32.3432 489.687 33.2222 487.847 33.2222H480.27V59.3825C480.27 62.969 480.488 65.5534 480.925 67.1357C481.393 68.6828 482.578 69.4564 484.48 69.4564C485.446 69.4564 486.538 69.2806 487.754 68.929C488.97 68.5422 489.921 68.173 490.607 67.8214C491.698 67.2588 492.415 67.6631 492.758 69.0344L494.161 75.0471C494.442 76.2426 494.037 77.1216 492.945 77.6842C491.916 78.2117 490.498 78.6863 488.689 79.1083C486.912 79.5654 485.119 79.7939 483.31 79.7939C478.851 79.7939 475.047 78.7567 471.898 76.6821C468.749 74.6076 467.174 70.3354 467.174 63.8657V33.2222H463.994Z" fill="#252436"/>
<path d="M505.761 78.0534C503.89 78.0534 502.954 76.9986 502.954 74.8889V25.8382C502.954 23.7285 503.89 22.6737 505.761 22.6737H513.151C515.021 22.6737 515.957 23.7285 515.957 25.8382V30.1631H516.144C516.955 27.9128 518.311 25.9261 520.213 24.2032C522.115 22.4803 524.36 21.6188 526.948 21.6188C528.725 21.6188 530.191 21.865 531.345 22.3572C532.436 22.8143 532.857 23.6582 532.607 24.8889L531.298 31.1652C531.017 32.5717 530.175 32.9936 528.772 32.4311C527.961 32.1146 527.182 31.9564 526.434 31.9564C523.44 31.9564 520.961 33.9782 518.997 38.0218C517.033 42.0654 516.05 47.955 516.05 55.6906V74.8889C516.05 76.9986 515.115 78.0534 513.244 78.0534H505.761Z" fill="#252436"/>
<path d="M536.677 26.7876C535.835 24.045 536.349 22.6737 538.22 22.6737H546.592C548.026 22.6737 548.962 23.5703 549.398 25.3636L556.461 54.8467C556.804 56.218 557.1 57.9936 557.35 60.1737C557.63 62.3185 557.771 63.6899 557.771 64.2876H558.051C558.425 62.424 558.69 60.9472 558.846 59.8572C559.033 58.732 559.517 56.5696 560.296 53.3699L566.984 25.3636C567.421 23.5703 568.356 22.6737 569.791 22.6737H578.163C580.003 22.6737 580.517 24.045 579.706 26.7876L563.944 80.2686C562.105 86.5274 559.844 91.4149 557.162 94.9311C554.481 98.4472 550.755 100.205 545.984 100.205C543.365 100.205 541.026 99.9592 538.968 99.4669C537.784 99.1856 537.331 98.2714 537.612 96.7243L538.641 90.9226C538.922 89.4107 539.717 88.8832 541.026 89.3403C541.993 89.692 542.897 89.8678 543.739 89.8678C546.265 89.8678 548.182 88.514 549.492 85.8066C550.833 83.0991 551.721 80.7785 552.158 78.8446L552.298 78.0534L536.677 26.7876Z" fill="#252436"/>
<path d="M590.885 78.0534C588.39 78.0534 587.143 76.7349 587.143 74.0977V6.37621C587.143 3.73908 588.39 2.42051 590.885 2.42051H606.787C618.761 2.42051 626.836 4.0907 631.015 7.43106C635.224 10.7363 637.329 15.8347 637.329 22.7264C637.329 27.5436 635.754 31.2707 632.605 33.9079C629.487 36.545 626.462 38.0745 623.531 38.4965V38.6547C626.369 38.8657 629.705 40.4831 633.54 43.507C637.376 46.5309 639.293 50.8031 639.293 56.3235C639.293 62.7932 636.955 68.0323 632.277 72.0408C627.6 76.0492 619.883 78.0534 609.126 78.0534H590.885ZM600.8 65.1842H607.629C614.239 65.1842 618.729 64.5337 621.099 63.2327C623.5 61.9318 624.701 59.2946 624.701 55.3214C624.701 51.5942 623.313 49.0274 620.538 47.6209C617.794 46.1793 613.491 45.4585 607.629 45.4585H600.8V65.1842ZM600.8 33.0112H606.927C610.95 33.0112 614.707 32.2201 618.199 30.6378C621.723 29.0555 623.484 26.5942 623.484 23.2538C623.484 20.6519 622.502 18.6828 620.538 17.3467C618.605 15.9754 614.068 15.2897 606.927 15.2897H600.8V33.0112Z" fill="#252436"/>
<path d="M653.371 78.0534C651.501 78.0534 650.565 76.9986 650.565 74.8889V25.8382C650.565 23.7285 651.501 22.6737 653.371 22.6737H660.855C662.726 22.6737 663.661 23.7285 663.661 25.8382V74.8889C663.661 76.9986 662.726 78.0534 660.855 78.0534H653.371ZM653.371 14.5513C651.501 14.5513 650.565 13.4965 650.565 11.3868V4.6357C650.565 2.526 651.501 1.47115 653.371 1.47115H660.855C662.726 1.47115 663.661 2.526 663.661 4.6357V11.3868C663.661 13.4965 662.726 14.5513 660.855 14.5513H653.371Z" fill="#252436"/>
<path d="M679.189 78.0534C677.318 78.0534 676.383 76.9986 676.383 74.8889V3.36988C676.383 1.26017 677.318 0.205322 679.189 0.205322H686.673C688.544 0.205322 689.479 1.26017 689.479 3.36988V42.1357C689.479 43.5422 689.417 44.9486 689.292 46.3551H689.479L704.306 24.8361C705.303 23.3945 706.519 22.6737 707.954 22.6737H715.624C718.493 22.6737 718.976 23.9747 717.074 26.5766L702.949 45.8277L719.319 74.1505C720.816 76.7524 720.333 78.0534 717.869 78.0534H709.871C708.312 78.0534 707.034 77.1392 706.036 75.3108L695.419 56.0598L689.479 64.1294V74.8889C689.479 76.9986 688.544 78.0534 686.673 78.0534H679.189Z" fill="#252436"/>
<path d="M731.386 78.0534C729.515 78.0534 728.58 76.9986 728.58 74.8889V25.8382C728.58 23.7285 729.515 22.6737 731.386 22.6737H738.776C740.647 22.6737 741.582 23.7285 741.582 25.8382V30.1631H741.77C742.58 27.9128 743.937 25.9261 745.839 24.2032C747.741 22.4803 749.986 21.6188 752.574 21.6188C754.351 21.6188 755.817 21.865 756.97 22.3572C758.062 22.8143 758.483 23.6582 758.233 24.8889L756.923 31.1652C756.643 32.5717 755.801 32.9936 754.398 32.4311C753.587 32.1146 752.808 31.9564 752.059 31.9564C749.066 31.9564 746.587 33.9782 744.623 38.0218C742.658 42.0654 741.676 47.955 741.676 55.6906V74.8889C741.676 76.9986 740.741 78.0534 738.87 78.0534H731.386Z" fill="#252436"/>
<path d="M762.723 63.2855C762.723 56.2531 765.701 51.1547 771.656 47.9901C777.612 44.8256 784.41 43.1378 792.049 42.9268V40.8171C792.049 37.5823 791.332 35.2967 789.897 33.9606C788.463 32.6245 786.467 31.9564 783.911 31.9564C782.102 31.9564 780.496 32.2553 779.093 32.853C777.721 33.4156 776.521 34.0837 775.492 34.8572C774.494 35.5956 773.59 36.3516 772.779 37.1252C771.345 38.5316 770.16 38.6019 769.224 37.3361L765.342 31.9564C764.376 30.6202 764.61 29.2489 766.044 27.8425C767.135 26.7524 768.398 25.8031 769.832 24.9944C771.298 24.1856 773.231 23.4297 775.632 22.7264C778.033 21.988 781.151 21.6188 784.986 21.6188C791.472 21.6188 796.445 23.3066 799.906 26.6821C803.399 30.0576 805.145 35.033 805.145 41.6083V74.8889C805.145 76.9986 804.209 78.0534 802.339 78.0534H794.668C792.984 78.0534 792.142 76.9986 792.142 74.8889V73.3066H792.049C790.209 75.3108 787.995 76.7876 785.407 77.737C782.85 78.6512 780.496 79.1083 778.345 79.1083C773.231 79.1083 769.349 77.7018 766.699 74.8889C764.048 72.0408 762.723 68.173 762.723 63.2855ZM776.567 62.969C776.567 64.1997 776.786 65.2721 777.222 66.1863C777.659 67.0654 778.345 67.7159 779.28 68.1378C780.216 68.5598 781.26 68.7707 782.414 68.7707C784.004 68.7707 785.548 68.5246 787.044 68.0323C788.541 67.5401 790.209 66.3797 792.049 64.5513V53.1062C786.81 53.7742 783.303 54.6357 781.525 55.6906C779.748 56.7454 778.47 57.8354 777.69 58.9606C776.942 60.0858 776.567 61.4219 776.567 62.969Z" fill="#252436"/>
<path d="M820.72 78.0534C818.849 78.0534 817.913 76.9986 817.913 74.8889V25.8382C817.913 23.7285 818.849 22.6737 820.72 22.6737H828.11C829.981 22.6737 830.916 23.7285 830.916 25.8382V28.8973H831.103C832.007 26.647 833.535 24.8713 835.687 23.5703C837.838 22.2693 839.849 21.6188 841.72 21.6188C845.462 21.6188 848.362 22.6034 850.42 24.5724C852.509 26.5415 853.943 28.7391 854.723 31.1652H854.91C857.622 27.192 860.07 24.6076 862.253 23.4121C864.467 22.2166 867.289 21.6188 870.718 21.6188C875.333 21.6188 879.215 23.3418 882.365 26.7876C885.545 30.2335 887.135 36.5274 887.135 45.6695V74.8889C887.135 76.9986 886.2 78.0534 884.329 78.0534H876.846C874.975 78.0534 874.039 76.9986 874.039 74.8889V49.4669C874.039 41.8017 873.572 36.9669 872.636 34.9627C871.732 32.9585 870.11 31.9564 867.772 31.9564C865.589 31.9564 863.594 33.398 861.785 36.2813C859.977 39.1645 859.072 45.1069 859.072 54.1083V74.8889C859.072 76.9986 858.137 78.0534 856.266 78.0534H848.783C846.912 78.0534 845.976 76.9986 845.976 74.8889V49.4669C845.976 41.8017 845.509 36.9669 844.573 34.9627C843.669 32.9585 842.048 31.9564 839.709 31.9564C837.526 31.9564 835.531 33.398 833.722 36.2813C831.914 39.1294 831.009 45.0717 831.009 54.1083V74.8889C831.009 76.9986 830.074 78.0534 828.203 78.0534H820.72Z" fill="#252436"/>
<path d="M934.975 46.8365C935.23 47.8447 935.358 48.8889 935.358 49.969C935.358 50.9772 935.23 52.0574 934.975 53.2095C934.655 53.6416 931.814 56.7381 926.449 62.499C921.085 68.1879 917.797 71.6444 916.583 72.8686C914.221 75.461 910.645 78.4855 905.855 81.942L900.108 74.5969C912.56 60.6987 920.128 52.4174 922.81 49.753L921.181 48.1327L901.161 24.8011L905.855 17.564C910.517 20.9485 914.604 24.4771 918.116 28.1496C921.628 31.8222 927.248 38.0512 934.975 46.8365Z" fill="#252436"/>
<path d="M252.477 78.0534C250.232 78.0534 249.499 76.8931 250.279 74.5724L273.197 6.69266C274.163 3.84456 275.629 2.42051 277.593 2.42051H284.141C286.106 2.42051 287.571 3.84456 288.538 6.69266L311.456 74.5724C312.235 76.8931 311.502 78.0534 309.257 78.0534H301.821C299.763 78.0534 298.329 76.8403 297.518 74.4142L292.747 60.2264H268.987L264.217 74.4142C263.406 76.8403 261.971 78.0534 259.914 78.0534H252.477ZM273.337 47.1463H288.397L282.644 30.3741C281.959 28.405 281.538 26.981 281.382 26.1019C281.257 25.1877 281.117 23.8516 280.961 22.0935H280.774C280.618 23.8516 280.462 25.1877 280.306 26.1019C280.181 26.981 279.776 28.405 279.09 30.3741L273.337 47.1463Z" fill="#F2AB01"/>
<path d="M321.465 78.0534C319.594 78.0534 318.659 76.9986 318.659 74.8889V25.8382C318.659 23.7285 319.594 22.6737 321.465 22.6737H328.855C330.726 22.6737 331.661 23.7285 331.661 25.8382V30.1631H331.848C332.659 27.9128 334.015 25.9261 335.917 24.2032C337.819 22.4803 340.064 21.6188 342.652 21.6188C344.43 21.6188 345.895 21.865 347.049 22.3572C348.14 22.8143 348.561 23.6582 348.312 24.8889L347.002 31.1652C346.721 32.5717 345.88 32.9936 344.476 32.4311C343.666 32.1146 342.886 31.9564 342.138 31.9564C339.144 31.9564 336.666 33.9782 334.701 38.0218C332.737 42.0654 331.755 47.955 331.755 55.6906V74.8889C331.755 76.9986 330.819 78.0534 328.948 78.0534H321.465Z" fill="#F2AB01"/>
<path d="M353.784 33.2222C351.944 33.2222 351.024 32.3432 351.024 30.5851V25.3108C351.024 23.5527 351.944 22.6737 353.784 22.6737H356.964V20.8277C356.964 19.2454 357.292 17.8038 357.947 16.5028L361.548 9.38254C362.234 8.04639 363.045 7.37832 363.98 7.37832H367.254C369.125 7.37832 370.06 8.43317 370.06 10.5429V22.6737H377.637C379.477 22.6737 380.397 23.5527 380.397 25.3108V30.5851C380.397 32.3432 379.477 33.2222 377.637 33.2222H370.06V59.3825C370.06 62.969 370.279 65.5534 370.715 67.1357C371.183 68.6828 372.368 69.4564 374.27 69.4564C375.236 69.4564 376.328 69.2806 377.544 68.929C378.76 68.5422 379.711 68.173 380.397 67.8214C381.488 67.2588 382.205 67.6631 382.548 69.0344L383.952 75.0471C384.232 76.2426 383.827 77.1216 382.735 77.6842C381.706 78.2117 380.288 78.6863 378.479 79.1083C376.702 79.5654 374.909 79.7939 373.101 79.7939C368.642 79.7939 364.838 78.7567 361.688 76.6821C358.539 74.6076 356.964 70.3354 356.964 63.8657V33.2222H353.784Z" fill="#F2AB01"/>
<path d="M395.551 78.0534C393.68 78.0534 392.745 76.9986 392.745 74.8889V25.8382C392.745 23.7285 393.68 22.6737 395.551 22.6737H403.034C404.905 22.6737 405.841 23.7285 405.841 25.8382V74.8889C405.841 76.9986 404.905 78.0534 403.034 78.0534H395.551ZM395.551 14.5513C393.68 14.5513 392.745 13.4965 392.745 11.3868V4.6357C392.745 2.526 393.68 1.47115 395.551 1.47115H403.034C404.905 1.47115 405.841 2.526 405.841 4.6357V11.3868C405.841 13.4965 404.905 14.5513 403.034 14.5513H395.551Z" fill="#F2AB01"/>
<path d="M417.58 74.3614C416.052 73.1308 415.631 71.8122 416.317 70.4057L418.703 65.5007C419.545 63.7426 420.854 63.5316 422.632 64.8678C424.409 66.2039 426.498 67.1884 428.899 67.8214C431.331 68.4543 433.545 68.7707 435.54 68.7707C436.944 68.7707 438.253 68.6125 439.469 68.296C440.685 67.9796 441.714 67.3643 442.556 66.45C443.398 65.5358 443.819 64.1997 443.819 62.4416C443.819 61.3868 443.57 60.4901 443.071 59.7517C442.572 59.0133 441.933 58.4508 441.153 58.064C440.373 57.6772 439.547 57.3607 438.674 57.1146C437.52 56.7982 435.852 56.2707 433.67 55.5323C431.518 54.7939 429.445 53.9325 427.449 52.9479C425.796 52.1392 424.175 51.014 422.585 49.5724C421.026 48.0956 419.872 46.4606 419.124 44.6673C418.406 42.8741 418.048 40.6589 418.048 38.0218C418.048 34.4704 418.952 31.3586 420.761 28.6863C422.6 26.014 424.97 24.1681 427.87 23.1484C430.77 22.1287 434.387 21.6188 438.721 21.6188C441.652 21.6188 444.505 22.0935 447.28 23.0429C450.055 23.9922 452.035 24.8889 453.22 25.7327C455.091 27.0689 455.559 28.4929 454.623 30.0049L451.77 34.699C450.897 36.1055 449.494 36.2109 447.561 35.0154C446.095 34.1012 444.645 33.3628 443.211 32.8003C441.808 32.2377 440.233 31.9564 438.487 31.9564C437.302 31.9564 436.164 32.097 435.073 32.3783C433.981 32.6596 433.046 33.187 432.266 33.9606C431.518 34.7342 431.144 35.7538 431.144 37.0197C431.144 38.3558 431.487 39.4107 432.173 40.1842C432.89 40.9226 433.701 41.4676 434.605 41.8192C435.54 42.1709 436.429 42.5049 437.271 42.8214C439.017 43.4543 440.779 44.0696 442.556 44.6673C444.333 45.2299 446.142 45.9156 447.982 46.7243C449.572 47.4275 451.115 48.4297 452.612 49.7306C454.109 51.0316 455.2 52.6842 455.886 54.6884C456.572 56.6927 456.915 58.9782 456.915 61.545C456.915 64.9557 456.011 68.1202 454.202 71.0387C452.394 73.9571 450.008 76.0316 447.046 77.2623C444.084 78.4929 440.639 79.1083 436.71 79.1083C432.313 79.1083 428.571 78.7567 425.485 78.0534C422.398 77.3502 419.763 76.1195 417.58 74.3614Z" fill="#F2AB01"/>
<path d="M463.978 33.2222C462.138 33.2222 461.218 32.3432 461.218 30.5851V25.3108C461.218 23.5527 462.138 22.6737 463.978 22.6737H467.158V20.8277C467.158 19.2454 467.485 17.8038 468.14 16.5028L471.742 9.38254C472.428 8.04639 473.238 7.37832 474.174 7.37832H477.448C479.319 7.37832 480.254 8.43317 480.254 10.5429V22.6737H487.831C489.671 22.6737 490.59 23.5527 490.59 25.3108V30.5851C490.59 32.3432 489.671 33.2222 487.831 33.2222H480.254V59.3825C480.254 62.969 480.472 65.5534 480.909 67.1357C481.376 68.6828 482.561 69.4564 484.463 69.4564C485.43 69.4564 486.521 69.2806 487.737 68.929C488.953 68.5422 489.904 68.173 490.59 67.8214C491.682 67.2588 492.399 67.6631 492.742 69.0344L494.145 75.0471C494.426 76.2426 494.02 77.1216 492.929 77.6842C491.9 78.2117 490.481 78.6863 488.673 79.1083C486.896 79.5654 485.103 79.7939 483.294 79.7939C478.835 79.7939 475.031 78.7567 471.882 76.6821C468.733 74.6076 467.158 70.3354 467.158 63.8657V33.2222H463.978Z" fill="#F2AB01"/>
<path d="M505.744 78.0534C503.874 78.0534 502.938 76.9986 502.938 74.8889V25.8382C502.938 23.7285 503.874 22.6737 505.744 22.6737H513.134C515.005 22.6737 515.941 23.7285 515.941 25.8382V30.1631H516.128C516.938 27.9128 518.295 25.9261 520.197 24.2032C522.099 22.4803 524.344 21.6188 526.932 21.6188C528.709 21.6188 530.175 21.865 531.328 22.3572C532.42 22.8143 532.841 23.6582 532.591 24.8889L531.282 31.1652C531.001 32.5717 530.159 32.9936 528.756 32.4311C527.945 32.1146 527.166 31.9564 526.417 31.9564C523.424 31.9564 520.945 33.9782 518.981 38.0218C517.016 42.0654 516.034 47.955 516.034 55.6906V74.8889C516.034 76.9986 515.099 78.0534 513.228 78.0534H505.744Z" fill="#F2AB01"/>
<path d="M536.66 26.7876C535.818 24.045 536.333 22.6737 538.204 22.6737H546.576C548.01 22.6737 548.946 23.5703 549.382 25.3636L556.445 54.8467C556.788 56.218 557.084 57.9936 557.333 60.1737C557.614 62.3185 557.754 63.6899 557.754 64.2876H558.035C558.409 62.424 558.674 60.9472 558.83 59.8572C559.017 58.732 559.5 56.5696 560.28 53.3699L566.968 25.3636C567.405 23.5703 568.34 22.6737 569.775 22.6737H578.147C579.986 22.6737 580.501 24.045 579.69 26.7876L563.928 80.2686C562.088 86.5274 559.828 91.4149 557.146 94.9311C554.465 98.4472 550.739 100.205 545.968 100.205C543.349 100.205 541.01 99.9592 538.952 99.4669C537.767 99.1856 537.315 98.2714 537.596 96.7243L538.625 90.9226C538.905 89.4107 539.701 88.8832 541.01 89.3403C541.977 89.692 542.881 89.8678 543.723 89.8678C546.249 89.8678 548.166 88.514 549.476 85.8066C550.817 83.0991 551.705 80.7785 552.142 78.8446L552.282 78.0534L536.66 26.7876Z" fill="#F2AB01"/>
</svg>
