<svg width="457" height="457" viewBox="0 0 457 457" fill="none" xmlns="http://www.w3.org/2000/svg">
<g clip-path="url(#clip0_2_142)">
<path d="M456.153 228.154C456.153 354.076 354.073 456.157 228.151 456.157C119.574 456.157 28.7224 380.106 5.75537 278.471L35.3756 278.625C57.7219 364.214 135.56 427.379 228.151 427.379C338.18 427.379 427.376 338.183 427.376 228.154C427.376 200.532 421.754 174.222 411.593 150.307L431.46 124.847C447.25 155.86 456.153 190.968 456.153 228.154Z" fill="#F2AB01"/>
<path d="M5.75537 278.471H146.983V304.592L17.7089 304.611L5.75537 278.471Z" fill="#F2AB01"/>
<path d="M114.222 211.62H148.754V237.741H114.222V211.62Z" fill="#F2AB01"/>
<path d="M67.7363 148.754H146.983V174.875H96.0704H67.7363V148.754Z" fill="#F2AB01"/>
<path d="M96.0704 174.875H67.7363V262.091H96.0704V174.875Z" fill="#F2AB01"/>
<path d="M148.754 237.741C163.784 237.741 176.426 233.053 187.054 224.709C197.681 216.365 203.652 205.048 203.652 193.248C203.652 181.447 197.681 170.13 187.054 161.786C176.426 153.442 162.013 148.754 146.983 148.754V174.875C153.196 174.875 159.155 176.793 163.547 180.242C167.94 183.691 170.409 188.37 170.409 193.248C170.409 198.125 167.94 202.804 163.547 206.253C159.155 209.702 154.967 211.62 148.754 211.62V237.741Z" fill="#F2AB01"/>
<path d="M146.983 304.592C162.013 304.592 176.426 299.904 187.054 291.56C197.681 283.216 203.652 271.899 203.652 260.098C203.652 248.298 197.681 232.996 187.054 224.652C176.426 216.308 162.013 211.62 146.983 211.62V237.722C153.196 237.722 159.155 239.659 163.547 243.109C167.94 246.558 170.409 255.221 170.409 260.098C170.409 264.976 167.94 269.655 163.547 273.104C159.155 276.553 153.196 278.491 146.983 278.491V304.592Z" fill="#F2AB01"/>
<path d="M359.932 218.261L388.266 181.073V304.592H359.932V218.261Z" fill="#F2AB01"/>
<path d="M264.041 2.86637C234.476 -1.86642 204.268 -0.729586 175.142 6.21199C146.016 13.1535 118.543 25.7639 94.2907 43.323C70.0384 60.8821 49.482 83.046 33.7955 108.549C18.1089 134.053 7.59917 162.397 2.86637 191.961C-0.714936 214.333 -0.935322 237.073 2.17712 259.434H31.2722C27.947 238.623 27.9401 217.383 31.2815 196.51C35.4169 170.677 44.6001 145.911 58.3068 123.626C72.0134 101.341 89.9755 81.9746 111.167 66.6317C132.358 51.2888 156.364 40.2702 181.813 34.2048C207.263 28.1394 233.659 27.146 259.492 31.2815C285.326 35.4169 310.092 44.6001 332.377 58.3068C352.53 70.7029 370.297 86.5789 384.859 105.177L305.275 218.836L256.203 148.754H222.246V304.592H250.58V190.123L305.276 268.237L322.57 243.537L322.569 243.535L394.91 140.222L394.907 140.22L419.782 104.694C417.514 101.166 415.145 97.6965 412.68 94.2907C395.12 70.0384 372.956 49.482 347.453 33.7955C321.949 18.1089 293.606 7.59917 264.041 2.86637Z" fill="#252436"/>
</g>
<defs>
<clipPath id="clip0_2_142">
<rect width="456.445" height="456.445" fill="white"/>
</clipPath>
</defs>
</svg>
